<svg xmlns="http://www.w3.org/2000/svg" viewBox="0 0 128 46" role="img" aria-label="Thread"><g><path d="M 31.507 29.566 C 31.27 29.324 31.152 29.016 31.152 28.64 L 31.152 23.407 C 31.152 22.334 31.068 21.309 30.935 20.328 C 30.64 18.162 28.951 16.864 28.097 16.422 C 27.244 15.979 26.107 15.758 24.688 15.758 C 23.586 15.758 22.64 16.007 21.792 16.382 C 20.285 17.048 19.566 18.295 19.566 18.295 L 19.566 13.706 L 19.575 13.179 L 19.56 13.179 L 19.589 7.246 C 19.59 7.028 19.412 6.851 19.191 6.851 L 14.407 6.851 C 14.187 6.851 14.009 7.027 14.009 7.244 L 14.009 34.075 C 14.009 34.292 14.187 34.468 14.407 34.468 L 19.168 34.468 C 19.388 34.468 19.566 34.292 19.566 34.075 L 19.566 22.24 C 19.566 22.133 19.738 21.818 19.764 21.79 C 20.053 21.308 20.433 20.919 20.827 20.609 C 21.221 20.302 21.719 20.106 22.324 20.026 C 22.403 19.999 22.508 19.986 22.64 19.986 C 23.27 19.986 23.782 20.127 24.177 20.409 C 24.571 20.69 24.872 21.039 25.083 21.455 C 25.293 21.871 25.431 22.321 25.497 22.803 C 25.562 23.287 25.596 23.729 25.596 24.132 L 25.596 30.129 C 25.596 30.828 25.661 31.478 25.792 32.081 C 25.924 32.686 26.153 33.202 26.482 33.631 C 26.81 34.061 27.264 34.396 27.842 34.638 C 28.419 34.879 29.142 35 30.009 35 C 30.613 35 31.197 34.939 31.762 34.819 C 32.258 34.715 32.724 34.502 33.127 34.196 C 33.225 34.122 33.28 34.003 33.28 33.881 L 33.28 30.294 C 33.28 30.053 33.064 29.873 32.822 29.908 C 32.726 29.922 32.628 29.928 32.531 29.928 C 32.084 29.928 31.743 29.807 31.507 29.566 Z M 48.832 17.185 C 48.972 17.025 48.956 16.785 48.8 16.639 C 48.297 16.167 47.991 15.994 47.584 15.82 C 47.012 15.578 46.472 15.454 45.947 15.454 C 44.843 15.454 43.84 15.687 42.932 16.147 C 42.023 16.607 41.311 17.262 40.786 18.127 L 40.543 18.533 L 40.543 16.299 C 40.543 16.081 40.365 15.904 40.146 15.903 L 35.388 15.898 C 35.283 15.898 35.182 15.94 35.107 16.014 C 35.032 16.088 34.99 16.189 34.99 16.294 L 34.99 34.072 C 34.99 34.291 35.168 34.468 35.388 34.468 L 40.145 34.468 C 40.365 34.468 40.543 34.291 40.543 34.072 L 40.543 22.999 C 40.543 22.968 40.551 22.96 40.567 22.96 C 40.582 22.96 40.582 22.945 40.582 22.914 C 40.582 22.89 40.59 22.875 40.606 22.875 C 40.621 22.875 40.629 22.859 40.629 22.836 C 40.676 22.781 40.715 22.727 40.747 22.672 C 40.794 22.617 40.841 22.571 40.88 22.532 C 40.919 22.493 40.942 22.454 40.942 22.43 C 41.389 21.939 41.929 21.55 42.556 21.253 C 43.19 20.957 43.856 20.809 44.569 20.809 C 45.093 20.809 45.962 20.85 46.333 20.918 C 46.597 20.967 46.829 20.934 46.925 20.685 C 47.549 19.071 48.362 17.722 48.832 17.186 Z M 65.568 24.93 C 65.568 23.817 65.43 22.699 65.156 21.558 C 64.881 20.423 64.429 19.404 63.8 18.509 C 63.165 17.607 62.336 16.878 61.312 16.305 C 60.289 15.737 59.042 15.454 57.572 15.454 C 55.914 15.454 54.49 15.726 53.294 16.266 C 52.099 16.811 51.11 17.54 50.32 18.47 C 49.531 19.393 48.948 20.456 48.565 21.658 C 48.182 22.86 47.993 24.123 47.993 25.447 C 47.993 26.822 48.199 28.079 48.605 29.231 C 49.011 30.378 49.628 31.374 50.458 32.203 C 51.287 33.037 52.316 33.683 53.552 34.145 C 54.887 34.644 56.45 34.877 58.247 34.836 C 59.308 34.811 60.361 34.661 61.393 34.413 C 62.322 34.19 63.786 33.821 64.869 33.34 C 65.071 33.25 65.119 33.023 65.061 32.809 C 64.732 31.605 64.531 30.353 64.459 29.107 C 64.452 28.981 64.467 28.833 64.404 28.718 C 64.306 28.539 64.082 28.464 63.895 28.545 C 60.819 29.887 59.615 29.843 58.83 29.843 C 57.675 29.843 56.674 29.565 55.834 29.014 C 54.999 28.458 54.432 27.69 54.141 26.716 L 54.101 26.594 L 65.17 26.594 C 65.389 26.594 65.567 26.417 65.568 26.198 Z M 60.054 23.422 L 54.101 23.422 L 54.141 23.344 C 54.192 22.971 54.284 22.598 54.415 22.214 C 54.543 21.84 54.736 21.492 54.987 21.185 C 55.239 20.879 55.548 20.629 55.914 20.428 C 56.285 20.233 56.732 20.133 57.258 20.133 C 57.727 20.133 58.144 20.239 58.499 20.451 C 58.853 20.662 59.139 20.924 59.362 21.241 C 59.585 21.555 59.751 21.905 59.854 22.276 C 59.957 22.624 60.024 22.982 60.054 23.344 L 60.054 23.422 Z M 84.841 29.636 C 84.804 29.439 84.623 29.299 84.423 29.317 C 84.051 29.35 83.358 29.471 83.294 29.025 C 83.247 28.696 83.259 28.298 83.259 28.054 C 83.283 27.002 83.298 25.95 83.298 24.906 L 83.298 21.788 C 83.298 19.653 82.633 18.059 81.309 17.015 C 79.978 15.97 78.129 15.445 75.772 15.445 C 74.347 15.445 72.945 15.612 71.551 15.94 C 70.314 16.239 68.029 17.016 66.627 17.748 C 66.426 17.852 66.389 18.088 66.481 18.295 C 66.881 19.196 67.648 21.535 67.697 21.813 C 67.745 22.081 68.047 22.219 68.284 22.083 C 69.376 21.454 70.582 20.979 71.198 20.796 C 72.091 20.537 73.039 20.4 74.033 20.4 C 74.433 20.4 74.824 20.446 75.216 20.522 C 75.608 20.598 75.976 20.728 76.32 20.896 C 76.65 21.063 76.949 21.285 77.205 21.551 C 77.456 21.818 77.62 22.138 77.699 22.504 L 77.738 22.626 L 77.581 22.626 C 76.344 22.702 75.083 22.847 73.798 23.061 C 72.514 23.274 71.339 23.633 70.274 24.128 C 69.209 24.631 68.34 25.302 67.674 26.133 C 67 26.964 66.664 28.047 66.664 29.366 C 66.664 31.036 67.149 32.362 68.12 33.353 C 69.091 34.344 70.564 34.84 72.538 34.84 C 73.117 34.84 73.642 34.825 74.112 34.779 C 74.589 34.741 75.044 34.665 75.49 34.542 C 75.936 34.421 76.375 34.276 76.79 34.085 C 77.213 33.902 77.66 33.65 78.129 33.33 L 78.255 33.254 L 78.333 33.376 C 78.701 33.978 79.218 34.375 79.884 34.565 C 80.557 34.748 81.27 34.84 82.037 34.84 C 82.609 34.84 84.432 34.653 86.221 33.671 C 86.436 33.552 86.5 33.266 86.345 33.076 C 85.309 31.796 84.957 30.253 84.841 29.636 Z M 77.699 30.159 L 77.659 30.197 C 77.292 30.464 76.884 30.654 76.438 30.776 C 75.991 30.891 75.545 30.952 75.099 30.952 C 74.308 30.952 73.704 30.746 73.289 30.319 C 72.866 29.9 72.655 29.35 72.655 28.695 C 72.655 28.085 72.812 27.589 73.125 27.208 C 73.446 26.819 73.845 26.522 74.331 26.316 C 74.816 26.103 75.349 25.966 75.929 25.897 C 76.5 25.828 77.056 25.798 77.581 25.798 L 77.699 25.798 Z" fill="var(--token-68388261-f6ff-4952-943a-e1324e28c028, rgb(222, 219, 219))"/><path d="M 86.239 3.209 C 87.548 3.209 88.78 3.362 89.935 3.665 C 91.099 3.972 92.244 4.349 93.362 4.794 C 94.499 5.235 95.61 5.738 96.692 6.3 C 97.767 6.86 98.852 7.401 99.946 7.924 L 100.1 7.964 L 100.138 7.845 C 100.317 6.789 100.625 5.784 101.062 4.834 C 101.498 3.883 102.069 3.051 102.775 2.338 C 103.481 1.625 104.328 1.057 105.317 0.634 C 106.304 0.212 107.44 0 108.724 0 C 109.853 0 110.866 0.185 111.765 0.555 C 112.663 0.925 113.427 1.433 114.056 2.08 C 114.684 2.728 115.165 3.481 115.499 4.338 C 115.833 5.197 116 6.115 116 7.092 C 116 8.281 115.782 9.331 115.345 10.242 C 114.909 11.153 114.293 11.919 113.498 12.54 C 112.702 13.161 111.765 13.63 110.687 13.946 C 109.609 14.263 108.428 14.422 107.145 14.422 C 106.862 14.422 106.573 14.409 106.279 14.382 C 105.983 14.356 105.695 14.33 105.412 14.303 L 105.258 14.303 L 105.258 34.098 C 105.258 34.317 105.08 34.494 104.86 34.494 L 100.518 34.494 C 100.358 34.494 100.213 34.398 100.151 34.251 L 99.368 32.726 L 99.252 32.885 C 98.739 33.519 98.02 34.008 97.096 34.351 C 96.172 34.694 95.261 34.866 94.363 34.866 C 92.899 34.866 91.649 34.589 90.609 34.034 C 89.569 33.479 88.709 32.746 88.029 31.835 C 87.349 30.924 86.855 29.9 86.547 28.765 C 86.239 27.629 86.085 26.48 86.085 25.317 C 86.084 24.109 86.233 22.904 86.528 21.732 C 86.822 20.557 87.304 19.5 87.972 18.562 C 88.639 17.625 89.512 16.872 90.59 16.304 C 91.349 15.904 92.184 15.668 93.032 15.55 C 94.051 15.408 95.086 15.421 96.102 15.59 C 97.045 15.749 97.916 16.094 98.673 16.683 C 99.077 16.996 99.443 17.365 99.742 17.78 C 99.772 17.822 99.802 17.864 99.83 17.908 L 99.83 12.956 L 99.753 12.956 C 98.726 12.586 97.68 12.15 96.615 11.648 C 95.533 11.14 94.435 10.664 93.323 10.222 C 92.235 9.778 91.123 9.395 89.993 9.073 C 88.885 8.757 87.738 8.597 86.586 8.598 C 85.328 8.598 84.16 8.796 83.082 9.192 C 82.15 9.535 81.362 10.095 80.718 10.871 C 80.56 11.061 80.264 11.051 80.109 10.859 L 77.454 7.56 C 77.344 7.423 77.334 7.228 77.434 7.084 C 78.384 5.708 79.587 4.727 81.041 4.14 C 82.581 3.52 84.314 3.209 86.239 3.209 Z M 95.787 30.626 C 96.557 30.626 97.179 30.429 97.655 30.032 C 98.129 29.636 98.501 29.148 98.771 28.566 C 99.041 27.986 99.22 27.372 99.31 26.724 C 99.399 26.077 99.445 25.516 99.445 25.04 C 99.445 24.512 99.399 23.944 99.31 23.336 C 99.22 22.729 99.041 22.168 98.771 21.652 C 98.501 21.137 98.122 20.702 97.635 20.345 C 97.147 19.988 96.519 19.81 95.749 19.81 C 95.004 19.81 94.382 19.995 93.881 20.365 C 93.381 20.735 92.982 21.197 92.688 21.752 C 92.393 22.306 92.179 22.9 92.053 23.515 C 91.924 24.136 91.86 24.697 91.86 25.198 C 91.86 25.701 91.924 26.268 92.053 26.902 C 92.181 27.536 92.399 28.13 92.707 28.685 C 93.015 29.24 93.42 29.702 93.92 30.072 C 94.421 30.442 95.042 30.626 95.787 30.626 Z M 105.335 9.786 L 105.451 9.786 C 105.913 9.866 106.387 9.905 106.875 9.905 C 107.337 9.905 107.796 9.845 108.243 9.727 C 108.691 9.608 109.089 9.437 109.436 9.212 C 109.783 8.988 110.057 8.697 110.264 8.34 C 110.468 7.984 110.572 7.568 110.572 7.092 C 110.572 6.617 110.411 6.141 110.09 5.666 C 109.769 5.19 109.288 4.953 108.647 4.953 C 108.005 4.953 107.478 5.125 107.068 5.468 C 106.657 5.811 106.33 6.227 106.086 6.716 C 105.842 7.205 105.668 7.726 105.567 8.281 C 105.464 8.835 105.387 9.311 105.335 9.707 L 105.335 9.786 Z M 2.544 7.623 C 2.389 7.653 2.277 7.788 2.277 7.945 L 2.277 15.846 L 0.396 15.846 C 0.177 15.846 0 16.023 0 16.241 L 0 20.275 C 0 20.456 0.148 20.603 0.33 20.603 L 2.277 20.603 L 2.277 29.345 C 2.276 30.062 2.375 30.776 2.572 31.466 C 2.768 32.153 3.069 32.753 3.475 33.264 C 3.881 33.777 4.411 34.188 5.066 34.497 C 5.72 34.806 6.505 34.962 7.422 34.962 C 8.338 34.962 9.222 34.881 10.072 34.719 C 10.878 34.567 11.607 34.196 12.26 33.608 C 12.33 33.545 12.37 33.453 12.37 33.359 L 12.37 29.378 C 12.37 29.143 12.132 28.988 11.913 29.078 C 11.685 29.17 11.45 29.245 11.212 29.304 C 10.78 29.412 10.38 29.466 10.014 29.466 C 9.175 29.466 8.606 29.203 8.306 28.678 C 8.004 28.152 7.854 27.58 7.854 26.96 L 7.854 20.603 L 12.079 20.603 C 12.261 20.603 12.409 20.456 12.409 20.275 L 12.409 16.175 C 12.409 15.993 12.261 15.846 12.079 15.846 L 7.854 15.846 L 7.854 7.111 C 7.854 6.995 7.802 6.885 7.713 6.81 C 7.624 6.735 7.506 6.703 7.39 6.722 Z" fill="var(--token-68388261-f6ff-4952-943a-e1324e28c028, rgb(222, 219, 219))"/></g></svg>